<svg width="220" height="50" viewBox="0 0 220 50" xmlns="http://www.w3.org/2000/svg">
  <defs>
    <linearGradient id="grad1" x1="0%" y1="0%" x2="100%" y2="100%">
      <stop offset="0%" style="stop-color: #1E40AF;" />
      <stop offset="100%" style="stop-color: #3B82F6;" />
    </linearGradient>
     <linearGradient id="grad2" x1="0%" y1="0%" x2="100%" y2="100%">
      <stop offset="0%" style="stop-color: #D97706;" />
      <stop offset="100%" style="stop-color: #F59E0B;" />
    </linearGradient>
  </defs>
  
  <!-- Icon: stylized chat bubbles / translation icon -->
  <g transform="translate(5, 8)">
    <path d="M0 18 C0 10.82 5.82 5 13 5 L25 5 C32.18 5 38 10.82 38 18 C38 25.18 32.18 31 25 31 L20 31 L15 36 L15 31 L13 31 C5.82 31 0 25.18 0 18 Z" fill="url(#grad1)" />
    <path d="M5 18 C5 13.582 8.582 10 13 10 L25 10 C29.418 10 33 13.582 33 18 C33 22.418 29.418 26 25 26 L21 26 L17 30 L17 26 L13 26 C8.582 26 5 22.418 5 18 Z" fill="white" />
    <text x="19" y="21" text-anchor="middle" font-size="12" font-weight="bold" fill="#1E40AF">A</text>
    <text x="19" y="21" text-anchor="middle" font-family="Arial" font-size="14" font-weight="bold" fill="#D97706" transform="translate(14, -2) scale(1, -1) rotate(180 19 21)">ع</text>
  </g>

  <!-- Text -->
  <text x="55" y="33" font-family="system-ui, sans-serif" font-size="18" font-weight="bold" fill="#1F2937">
    Arabic
    <tspan font-weight="normal" fill="#4B5563">Translation</tspan>
  </text>
</svg> 